<svg width="348" height="209" viewBox="0 0 348 209" fill="none" xmlns="http://www.w3.org/2000/svg">
<g clip-path="url(#clip0_5_474)">
<path d="M209.211 209H0V0H209.211V209ZM69.3922 1.03316H1.03421V69.3223H69.3922V1.03316ZM1.03421 128.468L59.2057 70.3554H1.03421V128.468ZM69.3922 139.678H1.03421V207.967H69.3922V139.678ZM69.3922 80.5316L11.2206 138.645H69.3922V80.5316ZM70.4264 59.1511L128.598 1.03316H70.4264V59.1461V59.1511ZM138.784 70.3605H70.4264V138.65H138.784V70.3554V70.3605ZM138.784 139.683H70.4264V207.972H138.784V139.683ZM138.784 11.2143L94.4239 55.53H138.784V11.2093V11.2143ZM208.176 139.683H139.819V207.972H208.176V139.683ZM208.176 1.03818H153.63V69.3223H208.176V1.03316V1.03818ZM208.176 70.3605H153.63V138.65H208.176V70.3554V70.3605Z" fill="#9747FF"/>
<path d="M348 209H208.182V0H348V209ZM277.569 1.03316H209.211V69.3223H277.569V1.03316ZM209.211 128.468L267.382 70.3554H209.211V128.468ZM277.569 139.678H209.211V207.967H277.569V139.678ZM277.569 80.5316L233.208 124.847H277.569V80.5316ZM346.961 1.03316H278.603V69.3223H346.961V1.03316ZM346.961 139.678H278.603V207.967H346.961V139.678ZM346.961 80.5316L288.789 138.645H346.961V80.5316ZM292.414 114.676L336.774 70.3605H292.414V114.676Z" fill="#9747FF"/>
</g>
<defs>
<clipPath id="clip0_5_474">
<rect width="348" height="209" fill="white"/>
</clipPath>
</defs>
</svg>
